HIERARCHY
ROOT Hips
{
	OFFSET	0	0	0
	CHANNELS 6  Xposition Yposition Zposition Xrotation Yrotation Zrotation
	JOINT Spine
	{
		OFFSET	0	7.0817	1.42564
		CHANNELS 3  Xrotation Yrotation Zrotation
		JOINT Spine1
		{
			OFFSET	0	12.1578	-2.17103
			CHANNELS 3  Xrotation Yrotation Zrotation
			JOINT Spine2
			{
				OFFSET	0	9.21601	0.987817
				CHANNELS 3  Xrotation Yrotation Zrotation
				JOINT Spine3
				{
					OFFSET	0	11.0288	3.27825
					CHANNELS 3  Xrotation Yrotation Zrotation
					JOINT Spine4
					{
						OFFSET	0	16.3261	-1.67169
						CHANNELS 3  Xrotation Yrotation Zrotation
						JOINT Neck
						{
							OFFSET	0	7.79399	-5.46013
							CHANNELS 3  Xrotation Yrotation Zrotation
							JOINT Head
							{
								OFFSET	0	9.35713	-2.80063
								CHANNELS 3  Xrotation Yrotation Zrotation
								End Site
								{
									OFFSET	0	19.5175	-0.944397
								}
							}
						}
					}
					JOINT LeftShoulder
					{
						OFFSET	-4.68942	19.8432	-9.35713
						CHANNELS 3  Xrotation Yrotation Zrotation
						JOINT LeftArm
						{
							OFFSET	-10.2519	-2.80063	3.59307
							CHANNELS 3  Xrotation Yrotation Zrotation
							JOINT LeftForeArm
							{
								OFFSET	-34.1249	-1.55752	2.4358
								CHANNELS 3  Xrotation Yrotation Zrotation
								JOINT LeftHand
								{
									OFFSET	-28.1809	-1.94746	2.01152
									CHANNELS 3  Xrotation Yrotation Zrotation
									End Site
									{
										OFFSET	-10.2846	-0.710727	0.734058
									}
								}
							}
						}
					}
					JOINT RightShoulder
					{
						OFFSET	4.68942	19.8432	-9.35713
						CHANNELS 3  Xrotation Yrotation Zrotation
						JOINT RightArm
						{
							OFFSET	10.2519	-2.80063	3.59307
							CHANNELS 3  Xrotation Yrotation Zrotation
							JOINT RightForeArm
							{
								OFFSET	34.1249	-1.55752	2.4358
								CHANNELS 3  Xrotation Yrotation Zrotation
								JOINT RightHand
								{
									OFFSET	28.1809	-1.94746	2.01152
									CHANNELS 3  Xrotation Yrotation Zrotation
									End Site
									{
										OFFSET	10.2846	-0.710727	0.734058
									}
								}
							}
						}
					}
				}
			}
		}
	}
	JOINT LeftUpLeg
	{
		OFFSET	-9.64475	-3.54085	-0.712821
		CHANNELS 3  Xrotation Yrotation Zrotation
		JOINT LeftLeg
		{
			OFFSET	-2.14734	-42.0762	-0.657743
			CHANNELS 3  Xrotation Yrotation Zrotation
			JOINT LeftFoot
			{
				OFFSET	-2.09898	-38.6909	3.32741
				CHANNELS 3  Xrotation Yrotation Zrotation
				JOINT LeftToeBase
				{
					OFFSET	0	-4.81787	-12.7963
					CHANNELS 3  Xrotation Yrotation Zrotation
					End Site
					{
						OFFSET	0	-1.92715	-7.70859
					}
				}
			}
		}
	}
	JOINT RightUpLeg
	{
		OFFSET	9.64475	-3.54085	-0.712821
		CHANNELS 3  Xrotation Yrotation Zrotation
		JOINT RightLeg
		{
			OFFSET	2.14734	-42.0762	-0.657743
			CHANNELS 3  Xrotation Yrotation Zrotation
			JOINT RightFoot
			{
				OFFSET	2.09898	-38.6909	3.32741
				CHANNELS 3  Xrotation Yrotation Zrotation
				JOINT RightToeBase
				{
					OFFSET	0	-4.81787	-12.7963
					CHANNELS 3  Xrotation Yrotation Zrotation
					End Site
					{
						OFFSET	0	-1.92715	-7.70859
					}
				}
			}
		}
	}
}
MOTION
Frames: 18
Frame Time: 0.020408
 0 -10.1657 2.85827 -0 0 -0 -0 0 -0 -0 0 -0 -0 0 -0 -0 0 -0 -0 0 -0 -0 0 -0 -0 0 -0 -0 0 -0 -0 0 -0 -0 0 -0 -0 0 -0 -0 0 -0 -0 0 -0 -0 0 -0 -0 0 -0 -0 0 -0 -0 0 -0 -0 0 -0 -0 0 -0 -0 0 -0 -0 0 -0 -0 0 -0 -0 0 -0
 80.911 88.1576 -176.999 26.5792 -68.0282 28.7232 0.000537532 0.030842 -0.998484 177.047 179.938 178.336 177.081 179.815 178.336 178.121 179.969 179.002 178.804 179.993 179.667 179.385 177.869 -178.269 179.819 178.127 -179.349 1.30002 7.38052 2.32002 157.979 -138.985 -138.8 0.524172 -24.2051 -1.89494 -0 9.67634 14.6377 1.33829 14.829 -2.83822 129.005 145.13 147.493 24.2201 31.6497 -11.4809 -0 -7.59141 -28.6381 10.8762 -6.80737 -14.7904 144.791 -176.062 -179.777 3.03219 0.0688425 11.4495 1.34533 0 0 171.112 -169.054 -177.303 160.31 -161.611 179.371 15.2885 -0.692394 -10.9977 178.028 180 -180
 80.5935 88.2287 -177.714 23.928 -66.7623 26.1632 0.000835718 0.0479667 -0.998156 177.12 179.904 178.336 177.121 179.712 178.336 178.065 179.952 179.002 179.071 179.995 179.667 0.0698216 1.97863 2.04853 0.0271308 1.21934 0.69493 1.22225 9.15352 2.13316 164.562 -140.648 -133.108 0.650404 -23.0843 -1.89682 -0 6.32758 10.8638 1.32471 15.5339 -2.81688 131.406 141.734 146.404 21.8546 25.8783 -8.05682 -0 -9.18255 -25.9426 12.8891 -5.46693 -14.8446 147.213 -174.822 -179.91 0.876586 0.0419135 11.4694 1.34998 0 0 170.764 -167.721 -177.016 161.795 -162.198 179.436 14.3885 -0.772423 -11.1123 178.03 180 -180
 80.5381 88.3758 -178.153 21.3491 -65.2157 23.7599 0.000807877 0.0464947 -0.995452 177.217 179.907 178.341 177.192 179.721 178.341 178.054 179.954 179.005 179.281 179.996 179.668 0.566218 2.23263 2.46883 0.179378 1.15509 0.815914 1.13161 10.7053 1.93445 169.355 -142.684 -127.33 0.820569 -21.2443 -1.63348 -0 3.32562 7.40362 1.28752 16.5598 -2.74759 134.422 137.893 143.96 19.6377 19.0469 -4.79049 -0 -11.4336 -23.4407 14.3859 -5.11927 -14.9213 149.573 -173.279 179.952 178.166 179.975 -168.53 1.35312 0 0 170.025 -166.301 -177.307 163.595 -162.73 179.715 13.5404 -0.916849 -11.0759 178.037 180 -180
 80.4925 88.555 -178.741 19.5393 -64.4792 22.0853 0.000898702 0.0532412 -0.967052 177.341 179.894 178.388 177.304 179.681 178.388 178.097 179.947 179.033 179.414 179.997 179.678 0.81043 2.4965 3.0742 0.258499 0.923627 0.979045 0.845738 10.9333 1.44099 172.759 -144.651 -122.626 0.995384 -19.5745 -1.55971 -0 0.646744 4.45736 1.21616 18.3287 -2.60928 138.68 133.904 141.223 18.0582 12.8715 -2.34086 -0 -13.7575 -21.0323 15.14 -5.20459 -14.8552 151.811 -171.293 -179.95 176.265 179.97 -168.493 1.35557 0 0 169.691 -164.951 -177.148 165.032 -163.298 179.747 12.5941 -0.899615 -11.094 178.05 180 -180
 80.4029 88.7536 -179.192 17.4127 -63.5938 20.3927 0.00102899 0.0616354 -0.956453 177.485 179.877 178.406 177.444 179.63 178.406 178.178 179.938 179.044 179.496 179.997 179.681 0.89679 2.64093 3.36818 0.287672 0.839198 1.06052 0.629255 10.1507 1.08352 174.434 -146.547 -118.184 1.17895 -17.2574 -1.48031 -0 -1.48642 1.92527 1.05739 19.6947 -2.27645 142.794 130.507 138.125 16.8996 7.9503 -0.57853 -0 -15.8833 -18.614 15.692 -5.24592 -14.7696 153.751 -169.758 -179.993 175.404 179.943 -168.53 1.35893 0 0 169.481 -163.614 -177.563 166.4 -163.787 -179.991 11.6216 -0.958569 -11.0371 178.065 180 -180
 80.2406 88.9552 -179.822 16.2661 -63.5208 19.5916 0.000981603 0.059931 -0.938357 177.623 179.88 178.436 177.583 179.641 178.436 178.273 179.94 179.062 179.535 179.997 179.687 0.867718 2.70802 3.60503 0.281764 0.701336 1.12016 0.488567 8.70717 0.857263 175.303 -148.599 -114.191 1.31815 -13.8183 -1.62406 -0 -2.84168 -0.584303 0.834992 21.2523 -1.80342 146.766 127.413 135.903 15.9474 6.24577 0.0858898 -0 -17.9436 -15.9768 15.3261 -5.07008 -14.5687 155.3 -168.317 -179.898 176.206 179.937 -168.62 1.36199 0 0 169.299 -162.682 -177.778 167.898 -164.41 -179.738 10.5141 -0.912268 -10.9072 178.072 180 -180
 79.9834 89.0753 -180.57 14.9196 -63.3272 18.7112 0.00087968 0.0545729 -0.923492 177.737 179.891 178.461 177.7 179.673 178.461 178.363 179.945 179.077 179.542 179.998 179.692 0.782537 3.13485 3.54365 0.254746 1.503 1.16097 0.235036 6.10187 0.425635 175.483 -150.115 -110.314 1.30326 -10.8202 -1.64348 -0 -4.23518 -2.58354 0.206998 21.8088 -0.44746 150.367 125.13 133.249 15.2857 7.2543 -0.155914 -0 -19.6362 -13.722 14.8916 -4.26809 -14.2053 156.402 -167.769 179.694 0.932472 0.507131 9.87559 1.41898 0 0 169.276 -161.797 -177.791 169.152 -164.992 -179.783 9.41824 -0.891767 -10.7614 178.083 180 -180
 79.9006 89.2125 -181.76 14.9306 -64.0231 18.6239 0.00117479 0.0781054 -0.861724 177.844 179.844 178.564 177.819 179.531 178.564 178.462 179.922 179.138 179.511 179.998 179.713 0.59051 3.0485 3.61443 0.198024 1.3109 1.16596 179.967 176.69 179.938 174.995 -151.242 -105.908 1.32202 -8.01773 -1.68791 -0 -5.39779 -4.18662 179.616 157.24 -179.168 153.876 123.22 132.031 14.8933 10.4886 -0.772182 -0 -20.8062 -11.664 14.2473 -3.52351 -13.3656 157.06 -167.672 179.46 1.50185 0.586411 9.19137 1.39459 0 0 169.646 -161.147 -176.693 169.552 -165.348 -179.87 8.3834 -0.770578 -11.1518 178.13 180 -180
 80.0671 89.2754 -182.849 14.9396 -64.3134 18.5367 0.00152747 0.112933 -0.774909 177.921 179.774 178.708 177.899 179.323 178.708 178.515 179.887 179.225 179.53 179.998 179.742 0.579594 3.19497 3.50706 0.193062 1.67618 1.1616 179.814 179.416 179.643 174.613 -151.893 -102.108 1.33469 -6.16107 -1.58751 -0 -6.10573 -4.93223 179.373 157.565 -178.644 157.682 121.976 130.668 14.8386 14.8616 -1.79486 -0 -21.2592 -9.92868 13.5591 -2.85728 -12.6752 157.588 -167.702 179.302 2.14879 0.47847 8.46599 1.36029 0 0 169.772 -160.366 -175.922 169.856 -165.469 -179.594 7.56592 -0.71701 -11.9335 178.198 180 -180
 80.6466 89.3929 -184.269 16.2563 -64.9162 19.6378 0.00194928 0.146225 -0.763751 177.98 179.708 178.727 177.997 179.123 178.727 178.661 179.854 179.236 179.302 179.997 179.745 179.85 176.184 -175.863 179.981 177.808 -178.619 179.482 -177.344 178.979 173.128 -152.249 -98.2583 1.34298 -6.10759 -1.38421 -0 -6.4668 -4.28644 179.21 159.404 -178.295 160.186 121.556 129.976 15.1918 20.53 -3.31325 -0 -20.9361 -8.38069 11.8903 -2.31453 -11.8691 158.043 -167.452 179.262 3.40014 0.473597 7.87617 1.33613 0 0 169.789 -159.835 -174.491 169.029 -165.082 179.996 7.06014 -0.591935 -11.9767 178.195 180 -180
 81.1863 89.5165 -186.261 18.1805 -65.7609 20.6557 0.00240572 0.213442 -0.645759 178.099 179.573 178.924 178.172 178.719 178.923 178.901 179.787 179.354 178.965 179.996 179.785 178.779 176.026 -175.8 179.658 177.401 -178.577 179.084 -173.714 178.143 171.974 -151.945 -93.8044 1.31035 -6.2169 -1.41303 -0 -6.56431 -2.28964 178.671 161.969 -177.15 162.4 121.005 128.405 16.2884 27.5313 -5.70477 -0 -19.9536 -7.233 10.3595 -1.22999 -10.4122 157.671 -168.041 179.567 4.78014 0.456424 6.70072 1.3114 0 0 169.959 -159.528 -172.263 168.325 -164.611 179.977 6.13021 -0.515681 -13.1104 178.286 180 -180
 81.6302 89.7318 -188.239 19.5129 -66.1146 21.0451 0.0020764 0.230864 -0.515306 178.185 179.538 179.141 178.289 178.615 179.141 179.059 179.769 179.485 178.758 179.996 179.828 178.073 175.958 -175.108 179.456 177.842 -178.417 178.974 -170.381 177.877 171.373 -151.362 -90.2149 1.12571 -6.20443 -1.62917 -0 -5.94695 0.880174 178.201 164.204 -176.169 164.079 121.102 128.174 18.2375 35.5966 -8.96584 -0 -18.2702 -6.49848 9.09732 -0.202184 -8.47963 157.362 -168.816 179.709 5.74561 0.420303 5.27483 1.28752 0 0 170.139 -159.12 -170.193 168.014 -163.946 -179.811 4.6764 -0.849366 -14.1057 178.389 180 -180
 82.315 89.98 -189.877 21.7841 -66.5894 23.5477 0.00245632 0.213461 -0.659282 178.23 179.573 178.901 178.404 178.719 178.901 179.292 179.787 179.341 178.298 179.993 179.78 176.676 175.921 -174.195 179.05 178.359 -178.212 179.828 -167.871 179.64 168.913 -151.025 -88.4274 1.0585 -6.81727 -1.37084 -0 -5.38145 5.10472 177.641 166.333 -175.017 163.851 121.308 129.143 21.5352 43.977 -13.4197 -0 -15.9068 -6.40195 6.69913 0.0313147 -7.71167 158.152 -168.911 178.77 6.78875 0.355906 5.3351 1.31112 0 0 170.08 -158.765 -169.168 166.77 -163.578 179.11 3.50508 -0.474273 -10.4505 178.213 180 -180
 82.6946 90.3732 -191.491 22.677 -66.2621 24.4484 0.00232192 0.184613 -0.720588 178.23 179.631 178.799 178.433 178.892 178.799 179.379 179.815 179.279 178.096 179.992 179.76 176.096 176.365 -174.12 178.876 179.08 -178.258 0.96153 -13.1367 2.02444 166.633 -151.236 -88.6207 1.17779 -8.59469 -1.48418 -0 -5.30381 9.52477 177.013 168.23 -173.739 163.575 121.452 129.831 26.3261 51.7825 -19.0709 -0 -13.4437 -6.27754 4.93458 0.262117 -6.66013 158.997 -169.134 178.415 6.99552 0.241758 4.9034 1.32367 0 0 170.155 -158.129 -168.413 165.858 -163.121 178.805 1.63766 -0.346869 -6.91707 178.139 180 -180
 83.1576 90.7847 -193.821 23.454 -65.6132 23.7387 0.00176329 0.189922 -0.531936 178.278 179.62 179.113 178.507 178.861 179.113 179.5 179.81 179.468 177.907 179.994 179.823 175.527 176.98 -174.449 178.7 179.737 -178.415 1.26684 -13.0016 2.66611 165.094 -152.029 -88.7849 1.37944 -10.18 -1.79385 -0 -5.36654 13.2095 176.578 170.372 -172.899 162.441 122.143 130.734 32.6595 58.3207 -26.5018 -0 -10.8128 -6.34822 3.06738 0.941225 -3.74985 159.807 -169.756 178.577 6.94254 -0.165686 1.90872 1.26188 0 0 170.744 -157.237 -166.19 165.568 -162.13 179.721 177.958 -179.066 170.692 178.288 180 -180
 83.8862 91.3906 -195.254 23.3439 -63.5302 24.3478 0.000582645 0.0412881 -0.808487 178.263 179.917 178.653 178.542 179.752 178.653 179.667 179.959 179.192 177.495 179.988 179.731 174.357 177.384 -174.235 178.35 -179.594 -178.429 1.38833 -12.4132 2.91418 163.917 -152.769 -88.8183 1.55859 -11.8014 -1.2441 -0 -5.24042 16.9764 176.231 172.63 -172.28 161.531 122.573 131.395 40.9786 63.6414 -36.0896 -0 -8.19149 -6.70389 0.0722231 0.220727 -3.33307 162.71 -169.689 177.382 6.19268 -0.244204 3.78302 1.34129 0 0 170.663 -157.511 -167.968 163.13 -163.091 -179.663 168.298 -179.854 -177.421 177.931 180 -180
 84.3178 91.6276 -196.42 23.509 -63.7109 24.2608 0.000505046 0.035818 -0.807837 178.331 179.928 178.654 178.602 179.785 178.654 179.691 179.964 179.192 177.565 179.989 179.731 174.48 177.727 -173.967 178.391 -178.713 -178.431 1.41733 -12.2335 2.9726 163.045 -153.398 -88.7148 1.86682 -13.2697 -0.903276 -0 -5.27023 20.6341 176.153 174.055 -172.193 160.102 123.057 132.598 50.4265 67.2635 -46.3805 -0 -5.74405 -7.26419 178.146 -179.579 177.744 165.008 -170.184 177.177 5.79658 -0.162068 3.40364 1.33964 0 0 171.05 -156.878 -167.42 163.824 -163.393 -179.752 167.46 -179.889 -176.516 177.932 180 -180
